<svg xmlns="http://www.w3.org/2000/svg" xmlns:xlink="http://www.w3.org/1999/xlink"><defs><style>
    .sprite-symbol-usage {display: none;}
    .sprite-symbol-usage:target {display: inline;}
  </style><symbol viewBox="0 0 179.8 264.1" id="about_decor"><path fill="currentColor" d="M143.4 54 179.8.4l-.7-.4-36.4 53.5c-2.7-2.2-5.7-4.3-8.8-6-9.5-5.4-20.4-8.2-31.4-8-11 .1-21.7 3.2-31.1 8.9-9.3 5.6-17 13.7-22.3 23.3s-7.9 20.5-7.6 31.5c.3 11 3.5 21.7 9.3 31 5.6 9 13.4 16.4 22.6 21.5L0 263.7l.7.4L74.1 156c.1.1.3.2.4.2l.5-.9c-.1-.1-.2-.1-.3-.2l68.2-100.4c5.3 4.5 9.8 9.8 13.4 15.9 5.4 9.3 8.3 20 8.3 30.7h1c0-11-2.9-21.8-8.4-31.2-3.7-6-8.4-11.5-13.8-16.1zM73.9 154.9c-9.1-5-16.8-12.3-22.3-21.2-5.7-9.2-8.9-19.7-9.2-30.5-.3-10.8 2.3-21.5 7.5-31s12.8-17.4 22.1-23c9.2-5.6 19.8-8.6 30.6-8.7 10.8-.2 21.5 2.6 30.9 7.9 3.1 1.7 6 3.7 8.7 6L73.9 154.9z" /></symbol><symbol viewBox="0 0 586 426" id="arrow_icon"><path fill="currentColor" d="M385.5 20.1c-12.7 10.5-23.6 19.6-24.3 20.3-1.1 1 9.5 14.3 56.8 70.9l58 69.7H0v64h476l-57.3 68.7c-31.5 37.9-57.6 69.3-58 69.9-.4.7 8.4 8.7 22 20 12.5 10.4 23.4 19.4 24.3 20.1 1.5 1.1 12.3-11.4 89.6-104.2 48.4-58.1 87.9-106 87.9-106.5 0-.8-175.3-212-176-212 0 0-10.4 8.6-23 19.1z" /></symbol><symbol viewBox="0 0 21.7 14.7" id="arrow_left"><path style="fill:#0f303f" d="m6.8 14.7-6.5-7-.3-.4.3-.3 6.5-7 .7.7-5.7 6.1h19.9v1H1.8L7.5 14z" /></symbol><symbol viewBox="0 0 431 512" id="bag"><path d="M404.211 188.631v296.421H26.948V188.631h377.263zM0 161.684V512h431.158V161.684H0zM110.778 56.883a148.21 148.21 0 0 1 253.011 104.8h-26.947a121.264 121.264 0 0 0-242.526 0H67.368a148.207 148.207 0 0 1 43.41-104.8z" /></symbol><symbol fill="none" viewBox="0 0 22 22" id="close"><path d="m1 1 20 20M21 1 1 21" stroke="currentColor" /></symbol><symbol fill="none" viewBox="0 0 14 14" id="eye"><g clip-path="url(#eye_a)" fill="#B7C1C5"><path d="M7 1.75c3.235 0 5.979 2.193 7 5.25-1.021 3.057-3.765 5.25-7 5.25S1.021 10.057 0 7c1.021-3.057 3.765-5.25 7-5.25Zm0 8.75a3.5 3.5 0 1 0 0-7 3.5 3.5 0 0 0 0 7Z" /><path d="M5.763 5.763a1.75 1.75 0 1 0 2.474 2.474 1.75 1.75 0 0 0-2.474-2.474Z" /></g><defs></defs></symbol><clipPath id="eye_a"><path fill="#fff" transform="matrix(-1 0 0 1 14 0)" d="M0 0h14v14H0z" /></clipPath><symbol viewBox="0 0 598 512" id="heart"><path d="M55.879 55.879C111.42.338 201.47.338 257.011 55.879l41.656 41.656 41.657-41.656c55.541-55.541 145.59-55.541 201.13 0 55.543 55.541 55.543 145.591 0 201.133l-242.788 242.79L55.878 257.013C.337 201.472.337 111.422 55.878 55.881zm181.019 20.113c-44.433-44.433-116.473-44.433-160.906 0s-44.433 116.473 0 160.906l222.676 222.677 222.674-222.677c44.433-44.433 44.433-116.473 0-160.906s-116.471-44.433-160.904 0l-61.77 61.769-61.769-61.769z" /></symbol><symbol viewBox="0 0 123 145" id="icon_change_pass"><path d="M52.2 2.5C40.8 6 34.5 13.9 31.5 28.2L31 31H0v114h123V31H91v-2.8c0-9.9-10-22.6-20-25.6-6.4-1.9-12.9-2-18.8-.1zm15.9 6.7C76 11.5 83.9 21 84 28.2V31H39v-3c0-6.6 7.4-15.9 14.6-18.5 4.8-1.7 9.5-1.8 14.5-.3zM115 88v50l-53.7-.2-53.8-.3-.3-49.8L7 38h108v50z" /><path d="M56.5 67.8c-13.8 6.4-13.1 37.4.9 42.7 4.3 1.6 4.7 1.6 8.3-.1 7.2-3.6 10.8-12.2 10.1-24-1-14.6-9.7-23-19.3-18.6zm9.2 8.9c2.6 3.3 2.8 4.4 2.8 12.4 0 7.3-.3 9.2-2.1 11.5-3.7 5-5.2 5.3-8.4 1.7-6.3-7-6.5-19-.4-26.3 3.3-3.9 4.7-3.8 8.1.7z" /></symbol><symbol viewBox="0 0 89 94" id="icon_exit"><path d="M57 2.5V5h27v84H57v5h32V0H57v2.5z" /><path d="M10.4 35.6C4.9 41.4.5 46.8.5 47.4c0 .7 4.5 6.1 10.1 11.9C20.5 69.8 20.7 70 22.5 68c1.8-1.9 1.6-2.2-5.4-10l-7.3-8H65v-5l-27.7-.2-27.8-.3 7.5-7.8c6-6.3 7.2-8.1 6.4-9.4-.6-.9-1.5-1.8-2.1-2-.6-.2-5.5 4.4-10.9 10.3z" /></symbol><symbol viewBox="0 0 76 58" id="icon_history_of_buying"><path d="M0 29v29h76V0H0v29zM12.4 4.2c3.4 12.1 6.8 17 14.5 21 14.6 7.6 30.5-.3 35.5-17.6 1.1-3.9 1.4-4.1 5.4-4.4l4.2-.3V54H4V3h4c2.4 0 4.2.5 4.4 1.2zm46.8-.6C60.7 5 56.4 13.7 52.1 18c-8.3 8.6-18.9 8.9-27.6.9-4.3-4-6.7-8-8-13.2L15.8 3h21.4c11.8 0 21.7.3 22 .6z" /></symbol><symbol viewBox="0 0 65 84" id="icon_marker"><path d="M25.7 1C6.2 5.9-4.7 26.3 2.6 43.9 4.1 47.4 30 82.9 31.1 83c1.1 0 30.4-36.1 31.6-39 2.6-6 2.7-13.4.4-21.1-1.9-6.1-3.1-8.1-7.9-12.9-3.9-3.9-7.3-6.2-10.7-7.3C38.1.5 30.5-.2 25.7 1zm17.9 4.9c6.1 2.8 12.4 8.9 15 14.6 2.8 5.9 3.3 16.6 1 21.8-.8 1.8-7.5 10.5-14.9 19.5L31.2 78 19.9 62.8C5.8 43.8 4 40.4 4 33 4 20.4 11.5 9.4 22.7 5.4c5.6-2 16-1.7 20.9.5z" /><path d="M25.6 13.4c-13.1 4.8-17.4 20.9-8.4 31.2 7.5 8.5 19.1 9.4 27.4 2.2 6-5.3 8.3-12.6 6.4-19.8-1.2-4.5-5.9-10.4-9.9-12.5-4.3-2.1-11.2-2.6-15.5-1.1zM40 18.1C50.5 24 50.5 40 40 45.9c-10.7 6-24-1.7-24-13.9 0-12.2 13.3-19.9 24-13.9z" /></symbol><symbol viewBox="0 0 20.7 20.7" id="iks"><path style="fill:#0f303f" d="M20.7.7 20 0l-9.6 9.6L.7 0 0 .7l9.6 9.7L0 20l.7.7 9.7-9.6 9.6 9.6.7-.7-9.6-9.6z" /></symbol><symbol viewBox="0 0 246 205" id="info_decor"><path fill="#cec6c4" stroke="#cec6c4" stroke-width=".39" d="M.278 203.5 245.405.283l.249.3L.527 203.8z" /><path d="M203.61 93.56a61.5 61.5 0 1 0-101.84 27.09" fill="none" stroke="#cec6c4" /></symbol><symbol viewBox="0 0 18 41" id="slider_arrow"><path fill="currentColor" d="m1.39.68-.78.64L16.35 20.5.61 39.68l.78.64L17.65 20.5 1.39.68z" /></symbol><symbol viewBox="0 0 6.1 4.5" id="triangle_bottom"><path d="M3 4.5 6 0H0l3 4.5z" /></symbol><symbol viewBox="0 0 455 512" id="user"><path d="M424.625 483.555H30.488a199.112 199.112 0 0 1 120.872-155.51c24.157-10.004 50.049-15.155 76.197-15.155s52.039 5.151 76.197 15.155a199.07 199.07 0 0 1 64.594 43.164 199.091 199.091 0 0 1 56.277 112.346zm28.702 0a227.598 227.598 0 0 0-64.864-132.463 227.571 227.571 0 0 0-247.989-49.325 227.572 227.572 0 0 0-73.824 49.325A227.58 227.58 0 0 0 1.785 483.555 227.604 227.604 0 0 0 0 512h455.111c0-9.529-.598-19.029-1.784-28.445zM227.555 199.111c-47.128 0-85.334-38.205-85.334-85.334s38.205-85.334 85.334-85.334c47.128 0 85.334 38.205 85.334 85.334s-38.205 85.334-85.334 85.334zm0 28.444c62.837 0 113.778-50.94 113.778-113.778S290.392-.001 227.555-.001c-62.838 0-113.778 50.94-113.778 113.778s50.94 113.778 113.778 113.778z" /></symbol></defs><use id="about_decor-usage" xlink:href="#about_decor" class="sprite-symbol-usage" /><use id="arrow_icon-usage" xlink:href="#arrow_icon" class="sprite-symbol-usage" /><use id="arrow_left-usage" xlink:href="#arrow_left" class="sprite-symbol-usage" /><use id="bag-usage" xlink:href="#bag" class="sprite-symbol-usage" /><use id="close-usage" xlink:href="#close" class="sprite-symbol-usage" /><use id="eye-usage" xlink:href="#eye" class="sprite-symbol-usage" /><use id="heart-usage" xlink:href="#heart" class="sprite-symbol-usage" /><use id="icon_change_pass-usage" xlink:href="#icon_change_pass" class="sprite-symbol-usage" /><use id="icon_exit-usage" xlink:href="#icon_exit" class="sprite-symbol-usage" /><use id="icon_history_of_buying-usage" xlink:href="#icon_history_of_buying" class="sprite-symbol-usage" /><use id="icon_marker-usage" xlink:href="#icon_marker" class="sprite-symbol-usage" /><use id="iks-usage" xlink:href="#iks" class="sprite-symbol-usage" /><use id="info_decor-usage" xlink:href="#info_decor" class="sprite-symbol-usage" /><use id="slider_arrow-usage" xlink:href="#slider_arrow" class="sprite-symbol-usage" /><use id="triangle_bottom-usage" xlink:href="#triangle_bottom" class="sprite-symbol-usage" /><use id="user-usage" xlink:href="#user" class="sprite-symbol-usage" /></svg>