<?xml version="1.0" encoding="UTF-8"?><svg id="_лой_1" xmlns="http://www.w3.org/2000/svg" viewBox="0 0 114 87.48"><defs><style>.cls-1{fill:#fff;}.cls-2{fill:#e64926;}</style></defs><g><path class="cls-1" d="M.57,86.98L11.68,.5H102.29l11.14,86.48H.57Z"/><path class="cls-2" d="M114,87.48H0L11.24,0H102.73l.06,.44,11.21,87.04ZM1.14,86.48H112.86L101.85,1H12.12L1.14,86.48Z"/></g><path class="cls-2" d="M56.98,37.42c-6.58,0-12.76-2.9-17.4-8.16-4.63-5.25-7.18-12.22-7.18-19.63h1c0,7.17,2.46,13.9,6.93,18.96,4.45,5.04,10.36,7.82,16.65,7.82s12.2-2.78,16.65-7.82c4.47-5.06,6.93-11.8,6.93-18.96h1c0,7.41-2.55,14.38-7.18,19.63-4.64,5.26-10.82,8.16-17.4,8.16Z"/><path class="cls-2" d="M32.5,10.48c-1.54,0-2.5-1.04-2.5-2s.96-2,2.5-2,2.5,1.04,2.5,2-.96,2-2.5,2Zm0-3c-.98,0-1.5,.58-1.5,1s.52,1,1.5,1,1.5-.58,1.5-1-.52-1-1.5-1Z"/><path class="cls-2" d="M81,10.48c-1.1,0-2-.9-2-2s.9-2,2-2,2,.9,2,2-.9,2-2,2Zm0-3c-.55,0-1,.45-1,1s.45,1,1,1,1-.45,1-1-.45-1-1-1Z"/></svg>